# xmcd
#
# Track frame offsets:
#	150
#	14404
#	29827
#	48186
#	63566
#	78276
#	97457
#	115639
#	132698
#	147559
#	164986
#	184455
#	195103
#	210043
#	228089
#	240739
#	251750
#	265622
#	279879
#	290908
#	309277
#
# Disc length: 4345 seconds
#
# Revision: 1
# Processed by: cddbd v1.5.1PL2 Copyright (c) Steve Scherf et al.
# Submitted via: audiograbber 1.83.01
#
DISCID=3910f715
DTITLE=Various Artist - The Stars Of FanFest 2006
DYEAR=2006
DGENRE=Pop
TTITLE0=David Lee Murphy - Loco
TTITLE1=Harley Smith - Yeah Right
TTITLE2=Paul Costa - House Of Mirrors
TTITLE3=Tom Curtain - Smack Bang
TTITLE4=Felicity Urquhart - Turn Out The Light
TTITLE5=Travis Collins - I Am Australian
TTITLE6=Mike Carr - She`s Gone
TTITLE7=Sweeneykilleen - The River Rose
TTITLE8=Michael Fix - Somethings Cooking (instrumental)
TTITLE9=Jetty Road - Run To You
TTITLE10=Samantha McClymont - Heart Of A Man
TTITLE11=Jake Nickolai - Sidewinder (instrumental)
TTITLE12=Amber Lawrence - I`ve Got The Blues
TTITLE13=Neil Murray - Far Away
TTITLE14=Billy Bridge - Litty Bitty Kiss
TTITLE15=Camille Te Nahu and Stuie French - Without You
TTITLE16=Davidson Brothers - Where I Want To Be
TTITLE17=Jane Saunders - The Dream
TTITLE18=Peter Denahy - Wind Through The Brigalow
TTITLE19=Drew Womack - Hey Daisy
TTITLE20=Tracy Coster - Won`t Those Memories Let Me Be
EXTD=
EXTT0=
EXTT1=
EXTT2=
EXTT3=
EXTT4=
EXTT5=
EXTT6=
EXTT7=
EXTT8=
EXTT9=
EXTT10=
EXTT11=
EXTT12=
EXTT13=
EXTT14=
EXTT15=
EXTT16=
EXTT17=
EXTT18=
EXTT19=
EXTT20=
PLAYORDER=
